# xmcd CD database file
#
# Track frame offsets:
#	150
#	22710
#	43492
#	74840
#	100890
#	129515
#	163102
#	185542
#
# Disc length: 2977 seconds
#
# Revision: 0
# Processed by: cddbd v1.5.1PL2 Copyright (c) Steve Scherf et al.
# Submitted via: CDex 1.51
#
DISCID=700b9f08
DTITLE=Eiichi Hayashi - Mori No Hito
DYEAR=2001
DGENRE=Jazz
TTITLE0=In a Drowse
TTITLE1=Ghost Dance
TTITLE2=Mori No Hito (Man of the Forest)
TTITLE3=Om
TTITLE4=Night Shade
TTITLE5=Double Lotus
TTITLE6=Yellow Jack
TTITLE7=Hopper's Duck
EXTD=YEAR: 2001
EXTT0=
EXTT1=
EXTT2=
EXTT3=
EXTT4=
EXTT5=
EXTT6=
EXTT7=
PLAYORDER=
